<svg id="visual" viewBox="0 0 900 900" width="900" height="900" xmlns="http://www.w3.org/2000/svg" xmlns:xlink="http://www.w3.org/1999/xlink" version="1.1"><path d="M0 678L18.8 685.3C37.7 692.7 75.3 707.3 112.8 707.7C150.3 708 187.7 694 225.2 687.7C262.7 681.3 300.3 682.7 337.8 670C375.3 657.3 412.7 630.7 450.2 627.7C487.7 624.7 525.3 645.3 562.8 648C600.3 650.7 637.7 635.3 675.2 633.5C712.7 631.7 750.3 643.3 787.8 655.2C825.3 667 862.7 679 881.3 685L900 691L900 901L881.3 901C862.7 901 825.3 901 787.8 901C750.3 901 712.7 901 675.2 901C637.7 901 600.3 901 562.8 901C525.3 901 487.7 901 450.2 901C412.7 901 375.3 901 337.8 901C300.3 901 262.7 901 225.2 901C187.7 901 150.3 901 112.8 901C75.3 901 37.7 901 18.8 901L0 901Z" fill="#a7c957"></path><path d="M0 661L18.8 660.5C37.7 660 75.3 659 112.8 672.2C150.3 685.3 187.7 712.7 225.2 713.8C262.7 715 300.3 690 337.8 689.8C375.3 689.7 412.7 714.3 450.2 721C487.7 727.7 525.3 716.3 562.8 708.7C600.3 701 637.7 697 675.2 693.2C712.7 689.3 750.3 685.7 787.8 677.2C825.3 668.7 862.7 655.3 881.3 648.7L900 642L900 901L881.3 901C862.7 901 825.3 901 787.8 901C750.3 901 712.7 901 675.2 901C637.7 901 600.3 901 562.8 901C525.3 901 487.7 901 450.2 901C412.7 901 375.3 901 337.8 901C300.3 901 262.7 901 225.2 901C187.7 901 150.3 901 112.8 901C75.3 901 37.7 901 18.8 901L0 901Z" fill="#93bb55"></path><path d="M0 704L18.8 714.5C37.7 725 75.3 746 112.8 741.5C150.3 737 187.7 707 225.2 707.2C262.7 707.3 300.3 737.7 337.8 738C375.3 738.3 412.7 708.7 450.2 704.8C487.7 701 525.3 723 562.8 721.7C600.3 720.3 637.7 695.7 675.2 684.3C712.7 673 750.3 675 787.8 682.8C825.3 690.7 862.7 704.3 881.3 711.2L900 718L900 901L881.3 901C862.7 901 825.3 901 787.8 901C750.3 901 712.7 901 675.2 901C637.7 901 600.3 901 562.8 901C525.3 901 487.7 901 450.2 901C412.7 901 375.3 901 337.8 901C300.3 901 262.7 901 225.2 901C187.7 901 150.3 901 112.8 901C75.3 901 37.7 901 18.8 901L0 901Z" fill="#80ad53"></path><path d="M0 728L18.8 733.7C37.7 739.3 75.3 750.7 112.8 755.2C150.3 759.7 187.7 757.3 225.2 754C262.7 750.7 300.3 746.3 337.8 748C375.3 749.7 412.7 757.3 450.2 764.7C487.7 772 525.3 779 562.8 773.7C600.3 768.3 637.7 750.7 675.2 750.3C712.7 750 750.3 767 787.8 766.8C825.3 766.7 862.7 749.3 881.3 740.7L900 732L900 901L881.3 901C862.7 901 825.3 901 787.8 901C750.3 901 712.7 901 675.2 901C637.7 901 600.3 901 562.8 901C525.3 901 487.7 901 450.2 901C412.7 901 375.3 901 337.8 901C300.3 901 262.7 901 225.2 901C187.7 901 150.3 901 112.8 901C75.3 901 37.7 901 18.8 901L0 901Z" fill="#6f9f50"></path><path d="M0 762L18.8 769.3C37.7 776.7 75.3 791.3 112.8 789.2C150.3 787 187.7 768 225.2 760C262.7 752 300.3 755 337.8 754.7C375.3 754.3 412.7 750.7 450.2 758C487.7 765.3 525.3 783.7 562.8 787.5C600.3 791.3 637.7 780.7 675.2 772.8C712.7 765 750.3 760 787.8 755.5C825.3 751 862.7 747 881.3 745L900 743L900 901L881.3 901C862.7 901 825.3 901 787.8 901C750.3 901 712.7 901 675.2 901C637.7 901 600.3 901 562.8 901C525.3 901 487.7 901 450.2 901C412.7 901 375.3 901 337.8 901C300.3 901 262.7 901 225.2 901C187.7 901 150.3 901 112.8 901C75.3 901 37.7 901 18.8 901L0 901Z" fill="#5f914e"></path><path d="M0 818L18.8 814.3C37.7 810.7 75.3 803.3 112.8 799.8C150.3 796.3 187.7 796.7 225.2 800.5C262.7 804.3 300.3 811.7 337.8 810.7C375.3 809.7 412.7 800.3 450.2 794.5C487.7 788.7 525.3 786.3 562.8 784.8C600.3 783.3 637.7 782.7 675.2 783.5C712.7 784.3 750.3 786.7 787.8 788.5C825.3 790.3 862.7 791.7 881.3 792.3L900 793L900 901L881.3 901C862.7 901 825.3 901 787.8 901C750.3 901 712.7 901 675.2 901C637.7 901 600.3 901 562.8 901C525.3 901 487.7 901 450.2 901C412.7 901 375.3 901 337.8 901C300.3 901 262.7 901 225.2 901C187.7 901 150.3 901 112.8 901C75.3 901 37.7 901 18.8 901L0 901Z" fill="#51824a"></path><path d="M0 840L18.8 834.7C37.7 829.3 75.3 818.7 112.8 815.5C150.3 812.3 187.7 816.7 225.2 822C262.7 827.3 300.3 833.7 337.8 839.3C375.3 845 412.7 850 450.2 851.7C487.7 853.3 525.3 851.7 562.8 845C600.3 838.3 637.7 826.7 675.2 827.5C712.7 828.3 750.3 841.7 787.8 842.2C825.3 842.7 862.7 830.3 881.3 824.2L900 818L900 901L881.3 901C862.7 901 825.3 901 787.8 901C750.3 901 712.7 901 675.2 901C637.7 901 600.3 901 562.8 901C525.3 901 487.7 901 450.2 901C412.7 901 375.3 901 337.8 901C300.3 901 262.7 901 225.2 901C187.7 901 150.3 901 112.8 901C75.3 901 37.7 901 18.8 901L0 901Z" fill="#437446"></path><path d="M0 851L18.8 850.7C37.7 850.3 75.3 849.7 112.8 852.8C150.3 856 187.7 863 225.2 864.3C262.7 865.7 300.3 861.3 337.8 861.2C375.3 861 412.7 865 450.2 864C487.7 863 525.3 857 562.8 853.8C600.3 850.7 637.7 850.3 675.2 854.8C712.7 859.3 750.3 868.7 787.8 873.2C825.3 877.7 862.7 877.3 881.3 877.2L900 877L900 901L881.3 901C862.7 901 825.3 901 787.8 901C750.3 901 712.7 901 675.2 901C637.7 901 600.3 901 562.8 901C525.3 901 487.7 901 450.2 901C412.7 901 375.3 901 337.8 901C300.3 901 262.7 901 225.2 901C187.7 901 150.3 901 112.8 901C75.3 901 37.7 901 18.8 901L0 901Z" fill="#386641"></path></svg>