<svg id="visual" viewBox="0 0 900 450" width="900" height="450" xmlns="http://www.w3.org/2000/svg" xmlns:xlink="http://www.w3.org/1999/xlink" version="1.1"><path d="M0 339L18.8 342.7C37.7 346.3 75.3 353.7 112.8 353.8C150.3 354 187.7 347 225.2 343.8C262.7 340.7 300.3 341.3 337.8 335C375.3 328.7 412.7 315.3 450.2 313.8C487.7 312.3 525.3 322.7 562.8 323.8C600.3 325 637.7 317 675.2 316C712.7 315 750.3 321 787.8 327C825.3 333 862.7 339 881.3 342L900 345L900 451L881.3 451C862.7 451 825.3 451 787.8 451C750.3 451 712.7 451 675.2 451C637.7 451 600.3 451 562.8 451C525.3 451 487.7 451 450.2 451C412.7 451 375.3 451 337.8 451C300.3 451 262.7 451 225.2 451C187.7 451 150.3 451 112.8 451C75.3 451 37.7 451 18.8 451L0 451Z" fill="#a7c957"></path><path d="M0 330L18.8 329.7C37.7 329.3 75.3 328.7 112.8 335.2C150.3 341.7 187.7 355.3 225.2 356C262.7 356.7 300.3 344.3 337.8 344.3C375.3 344.3 412.7 356.7 450.2 360C487.7 363.3 525.3 357.7 562.8 353.8C600.3 350 637.7 348 675.2 346.2C712.7 344.3 750.3 342.7 787.8 338.3C825.3 334 862.7 327 881.3 323.5L900 320L900 451L881.3 451C862.7 451 825.3 451 787.8 451C750.3 451 712.7 451 675.2 451C637.7 451 600.3 451 562.8 451C525.3 451 487.7 451 450.2 451C412.7 451 375.3 451 337.8 451C300.3 451 262.7 451 225.2 451C187.7 451 150.3 451 112.8 451C75.3 451 37.7 451 18.8 451L0 451Z" fill="#93bb55"></path><path d="M0 351L18.8 356.3C37.7 361.7 75.3 372.3 112.8 370.2C150.3 368 187.7 353 225.2 353.2C262.7 353.3 300.3 368.7 337.8 368.8C375.3 369 412.7 354 450.2 352C487.7 350 525.3 361 562.8 360.3C600.3 359.7 637.7 347.3 675.2 341.7C712.7 336 750.3 337 787.8 341C825.3 345 862.7 352 881.3 355.5L900 359L900 451L881.3 451C862.7 451 825.3 451 787.8 451C750.3 451 712.7 451 675.2 451C637.7 451 600.3 451 562.8 451C525.3 451 487.7 451 450.2 451C412.7 451 375.3 451 337.8 451C300.3 451 262.7 451 225.2 451C187.7 451 150.3 451 112.8 451C75.3 451 37.7 451 18.8 451L0 451Z" fill="#80ad53"></path><path d="M0 363L18.8 365.8C37.7 368.7 75.3 374.3 112.8 376.7C150.3 379 187.7 378 225.2 376.3C262.7 374.7 300.3 372.3 337.8 373.2C375.3 374 412.7 378 450.2 381.8C487.7 385.7 525.3 389.3 562.8 386.7C600.3 384 637.7 375 675.2 374.7C712.7 374.3 750.3 382.7 787.8 382.5C825.3 382.3 862.7 373.7 881.3 369.3L900 365L900 451L881.3 451C862.7 451 825.3 451 787.8 451C750.3 451 712.7 451 675.2 451C637.7 451 600.3 451 562.8 451C525.3 451 487.7 451 450.2 451C412.7 451 375.3 451 337.8 451C300.3 451 262.7 451 225.2 451C187.7 451 150.3 451 112.8 451C75.3 451 37.7 451 18.8 451L0 451Z" fill="#6f9f50"></path><path d="M0 381L18.8 384.5C37.7 388 75.3 395 112.8 393.8C150.3 392.7 187.7 383.3 225.2 379.5C262.7 375.7 300.3 377.3 337.8 377.2C375.3 377 412.7 375 450.2 378.7C487.7 382.3 525.3 391.7 562.8 393.7C600.3 395.7 637.7 390.3 675.2 386.3C712.7 382.3 750.3 379.7 787.8 377.3C825.3 375 862.7 373 881.3 372L900 371L900 451L881.3 451C862.7 451 825.3 451 787.8 451C750.3 451 712.7 451 675.2 451C637.7 451 600.3 451 562.8 451C525.3 451 487.7 451 450.2 451C412.7 451 375.3 451 337.8 451C300.3 451 262.7 451 225.2 451C187.7 451 150.3 451 112.8 451C75.3 451 37.7 451 18.8 451L0 451Z" fill="#5f914e"></path><path d="M0 409L18.8 407.2C37.7 405.3 75.3 401.7 112.8 399.8C150.3 398 187.7 398 225.2 399.8C262.7 401.7 300.3 405.3 337.8 404.8C375.3 404.3 412.7 399.7 450.2 396.8C487.7 394 525.3 393 562.8 392.2C600.3 391.3 637.7 390.7 675.2 391C712.7 391.3 750.3 392.7 787.8 393.7C825.3 394.7 862.7 395.3 881.3 395.7L900 396L900 451L881.3 451C862.7 451 825.3 451 787.8 451C750.3 451 712.7 451 675.2 451C637.7 451 600.3 451 562.8 451C525.3 451 487.7 451 450.2 451C412.7 451 375.3 451 337.8 451C300.3 451 262.7 451 225.2 451C187.7 451 150.3 451 112.8 451C75.3 451 37.7 451 18.8 451L0 451Z" fill="#51824a"></path><path d="M0 420L18.8 417.2C37.7 414.3 75.3 408.7 112.8 407C150.3 405.3 187.7 407.7 225.2 410.3C262.7 413 300.3 416 337.8 418.8C375.3 421.7 412.7 424.3 450.2 425.3C487.7 426.3 525.3 425.7 562.8 422.3C600.3 419 637.7 413 675.2 413.3C712.7 413.7 750.3 420.3 787.8 420.7C825.3 421 862.7 415 881.3 412L900 409L900 451L881.3 451C862.7 451 825.3 451 787.8 451C750.3 451 712.7 451 675.2 451C637.7 451 600.3 451 562.8 451C525.3 451 487.7 451 450.2 451C412.7 451 375.3 451 337.8 451C300.3 451 262.7 451 225.2 451C187.7 451 150.3 451 112.8 451C75.3 451 37.7 451 18.8 451L0 451Z" fill="#437446"></path><path d="M0 425L18.8 424.8C37.7 424.7 75.3 424.3 112.8 426C150.3 427.7 187.7 431.3 225.2 432C262.7 432.7 300.3 430.3 337.8 430.2C375.3 430 412.7 432 450.2 431.5C487.7 431 525.3 428 562.8 426.5C600.3 425 637.7 425 675.2 427.3C712.7 429.7 750.3 434.3 787.8 436.5C825.3 438.7 862.7 438.3 881.3 438.2L900 438L900 451L881.3 451C862.7 451 825.3 451 787.8 451C750.3 451 712.7 451 675.2 451C637.7 451 600.3 451 562.8 451C525.3 451 487.7 451 450.2 451C412.7 451 375.3 451 337.8 451C300.3 451 262.7 451 225.2 451C187.7 451 150.3 451 112.8 451C75.3 451 37.7 451 18.8 451L0 451Z" fill="#386641"></path></svg>